<svg width="95" height="15" viewBox="0 0 95 15" fill="none" xmlns="http://www.w3.org/2000/svg">
<path d="M10.995 0C13.545 0 15 1.44 15 3.9975V11.0025C15 13.545 13.5525 15 11.0025 15H3.9975C1.44 15 0 13.545 0 11.0025V3.9975C0 1.44 1.44 0 3.9975 0H10.995ZM7.4925 4.1325C7.1475 4.1325 6.87 4.41 6.87 4.755V6.87H4.7475C4.5825 6.87 4.425 6.9375 4.305 7.05C4.1925 7.17 4.125 7.32675 4.125 7.4925C4.125 7.8375 4.4025 8.115 4.7475 8.1225H6.87V10.245C6.87 10.59 7.1475 10.8675 7.4925 10.8675C7.8375 10.8675 8.115 10.59 8.115 10.245V8.1225H10.245C10.59 8.115 10.8675 7.8375 10.8675 7.4925C10.8675 7.1475 10.59 6.87 10.245 6.87H8.115V4.755C8.115 4.41 7.8375 4.1325 7.4925 4.1325Z" fill="#200E32"/>
<path d="M30.995 0C33.545 0 35 1.44 35 3.9975V11.0025C35 13.545 33.5525 15 31.0025 15H23.9975C21.44 15 20 13.545 20 11.0025V3.9975C20 1.44 21.44 0 23.9975 0H30.995ZM27.4925 4.1325C27.1475 4.1325 26.87 4.41 26.87 4.755V6.87H24.7475C24.5825 6.87 24.425 6.9375 24.305 7.05C24.1925 7.17 24.125 7.32675 24.125 7.4925C24.125 7.8375 24.4025 8.115 24.7475 8.1225H26.87V10.245C26.87 10.59 27.1475 10.8675 27.4925 10.8675C27.8375 10.8675 28.115 10.59 28.115 10.245V8.1225H30.245C30.59 8.115 30.8675 7.8375 30.8675 7.4925C30.8675 7.1475 30.59 6.87 30.245 6.87H28.115V4.755C28.115 4.41 27.8375 4.1325 27.4925 4.1325Z" fill="#200E32"/>
<path d="M50.995 0C53.545 0 55 1.44 55 3.9975V11.0025C55 13.545 53.5525 15 51.0025 15H43.9975C41.44 15 40 13.545 40 11.0025V3.9975C40 1.44 41.44 0 43.9975 0H50.995ZM47.4925 4.1325C47.1475 4.1325 46.87 4.41 46.87 4.755V6.87H44.7475C44.5825 6.87 44.425 6.9375 44.305 7.05C44.1925 7.17 44.125 7.32675 44.125 7.4925C44.125 7.8375 44.4025 8.115 44.7475 8.1225H46.87V10.245C46.87 10.59 47.1475 10.8675 47.4925 10.8675C47.8375 10.8675 48.115 10.59 48.115 10.245V8.1225H50.245C50.59 8.115 50.8675 7.8375 50.8675 7.4925C50.8675 7.1475 50.59 6.87 50.245 6.87H48.115V4.755C48.115 4.41 47.8375 4.1325 47.4925 4.1325Z" fill="#200E32"/>
<path d="M70.995 0C73.545 0 75 1.44 75 3.9975V11.0025C75 13.545 73.5525 15 71.0025 15H63.9975C61.44 15 60 13.545 60 11.0025V3.9975C60 1.44 61.44 0 63.9975 0H70.995ZM67.4925 4.1325C67.1475 4.1325 66.87 4.41 66.87 4.755V6.87H64.7475C64.5825 6.87 64.425 6.9375 64.305 7.05C64.1925 7.17 64.125 7.32675 64.125 7.4925C64.125 7.8375 64.4025 8.115 64.7475 8.1225H66.87V10.245C66.87 10.59 67.1475 10.8675 67.4925 10.8675C67.8375 10.8675 68.115 10.59 68.115 10.245V8.1225H70.245C70.59 8.115 70.8675 7.8375 70.8675 7.4925C70.8675 7.1475 70.59 6.87 70.245 6.87H68.115V4.755C68.115 4.41 67.8375 4.1325 67.4925 4.1325Z" fill="#200E32"/>
<path d="M90.995 0C93.545 0 95 1.44 95 3.9975V11.0025C95 13.545 93.5525 15 91.0025 15H83.9975C81.44 15 80 13.545 80 11.0025V3.9975C80 1.44 81.44 0 83.9975 0H90.995ZM87.4925 4.1325C87.1475 4.1325 86.87 4.41 86.87 4.755V6.87H84.7475C84.5825 6.87 84.425 6.9375 84.305 7.05C84.1925 7.17 84.125 7.32675 84.125 7.4925C84.125 7.8375 84.4025 8.115 84.7475 8.1225H86.87V10.245C86.87 10.59 87.1475 10.8675 87.4925 10.8675C87.8375 10.8675 88.115 10.59 88.115 10.245V8.1225H90.245C90.59 8.115 90.8675 7.8375 90.8675 7.4925C90.8675 7.1475 90.59 6.87 90.245 6.87H88.115V4.755C88.115 4.41 87.8375 4.1325 87.4925 4.1325Z" fill="#200E32"/>
</svg>
