<svg width="30" height="38" viewBox="0 0 30 38" fill="none" xmlns="http://www.w3.org/2000/svg">
<path d="M10.9659 25.4059C13.6652 25.1884 16.377 25.1884 19.0764 25.4059C20.5464 25.4916 22.0094 25.6755 23.4561 25.9564C26.5868 26.5903 28.6307 27.6246 29.5066 29.2927C30.1645 30.5946 30.1645 32.1445 29.5066 33.4464C28.6307 35.1145 26.6679 36.2155 23.4237 36.7827C21.9781 37.0742 20.5147 37.2637 19.044 37.3499C17.6814 37.5 16.3188 37.5 14.94 37.5H12.4582C11.9391 37.4333 11.4363 37.3999 10.9496 37.3999C9.47884 37.3242 8.01519 37.1403 6.56995 36.8494C3.43928 36.2489 1.39542 35.1813 0.519478 33.5131C0.181334 32.8669 0.0030639 32.1451 0.000195408 31.4112C-0.00664558 30.673 0.166233 29.9446 0.503257 29.2927C1.36298 27.6246 3.40683 26.5403 6.56995 25.9564C8.02155 25.6715 9.49019 25.4876 10.9659 25.4059ZM15.0049 0C20.4428 0 24.8511 4.53341 24.8511 10.1257C24.8511 15.7179 20.4428 20.2513 15.0049 20.2513C9.56701 20.2513 5.15871 15.7179 5.15871 10.1257C5.15871 4.53341 9.56701 0 15.0049 0Z" fill="#200E32"/>
</svg>
