<svg width="20" height="24" viewBox="0 0 20 24" fill="none" xmlns="http://www.w3.org/2000/svg">
<path d="M11.3692 20.1C11.9544 20.1173 12.5288 20.26 13.0533 20.5184H13.0848C13.523 20.8758 13.5975 21.5139 13.2532 21.9615C12.6265 22.8585 11.6236 23.424 10.5272 23.4988C9.40081 23.6332 8.26646 23.3213 7.3697 22.6308C6.90851 22.3146 6.6088 21.8144 6.54874 21.2609C6.54874 20.6752 7.09605 20.4033 7.60125 20.2883C8.19298 20.1636 8.79617 20.1006 9.40105 20.1H11.3692ZM10.0431 0C13.6848 0 17.4422 2.63538 17.8317 6.45251C17.8948 7.23685 17.8317 8.05256 17.8948 8.84736C18.1015 9.87232 18.5771 10.8248 19.2736 11.6082C19.7066 12.2521 19.9574 12.9998 19.9999 13.773V14.0136C20.0063 15.0569 19.6324 16.0674 18.9473 16.8581C18.079 17.7866 16.9008 18.37 15.6319 18.5C11.883 18.981 8.08739 18.981 4.33847 18.5C3.05465 18.3799 1.85988 17.7956 0.980959 16.8581C0.317326 16.0598 -0.0306743 15.0485 0.00212391 14.0136V13.773C0.0431976 13.0027 0.2863 12.2564 0.707306 11.6082C1.40688 10.8241 1.88927 9.87266 2.10715 8.84736C2.1703 8.05256 2.10715 7.24731 2.1703 6.45251C2.57025 2.63538 6.25404 0 9.93783 0H10.0431Z" fill="#200E32"/>
</svg>
